<svg xmlns="http://www.w3.org/2000/svg" viewBox="0 0 1280 400" width="1280" height="400" role="img" aria-label="FIRMA. Anti-AI-slop design skill for coding agents. Stack: Markdown, Node, Zero deps.">
<path d="M0 0H1258L1280 22V400H22L0 378Z" fill="#1D161F"></path><path d="M24 24H1234L1256 46V376H46L24 354Z" fill="none" stroke="#382E3B" stroke-width="1"></path><path d="M1257.5 0.5L1279.5 22.5" stroke="#D742FF" stroke-width="2"></path><path d="M900 24V376" stroke="#382E3B" stroke-width="1"></path><path d="M80 51H88L91 54V61H83L80 58Z" fill="#D742FF"></path><text x="102" y="62" font-family="ui-monospace,SFMono-Regular,Menlo,Consolas,monospace" font-size="17" fill="#978E9A">anti-AI-slop design skill · MIT</text><g transform="translate(80,100)" fill="#E9E4EA" fill-rule="evenodd"><path transform="translate(0,0)" d="M0 0H80V26H26V42H70V68H26V110H0Z"></path><path transform="translate(96,0)" d="M0 0H26V110H0Z"></path><path transform="translate(138,0)" d="M0 0H72L84 12V56L72 68H26V110H0Z M26 26H58V42H26Z M26 68H56L88 110H58Z"></path><path transform="translate(242,0)" d="M0 0H26L52 46L78 0H104V110H78V52L52 96L26 52V110H0Z"></path><path transform="translate(362,0)" d="M12 0H72L84 12V110H58V88H26V110H0V12Z M26 26H58V68H26Z"></path></g><text x="80" y="258" font-family="ui-monospace,SFMono-Regular,Menlo,Consolas,monospace" font-size="17" fill="#938A96">An anti-AI-slop design skill for coding agents.</text><text x="80" y="284" font-family="ui-monospace,SFMono-Regular,Menlo,Consolas,monospace" font-size="17" fill="#938A96">Nothing ships without its firma.</text><text x="940" y="218" font-family="ui-monospace,SFMono-Regular,Menlo,Consolas,monospace" font-size="13" fill="#978E9A">log</text><text x="940" y="252" xml:space="preserve" font-family="ui-monospace,SFMono-Regular,Menlo,Consolas,monospace" font-size="13" fill="#9F96A2">{ "family": "Diptych",</text><text x="940" y="274" xml:space="preserve" font-family="ui-monospace,SFMono-Regular,Menlo,Consolas,monospace" font-size="13" fill="#9F96A2">  "macro": "Split Studio" }</text><path d="M80 316H177L185 324V348H80Z" fill="none" stroke="#413644" stroke-width="1"></path><text x="132.5" y="337" text-anchor="middle" font-family="ui-monospace,SFMono-Regular,Menlo,Consolas,monospace" font-size="16" fill="#9F96A2">Markdown</text><path d="M197 316H255L263 324V348H197Z" fill="none" stroke="#413644" stroke-width="1"></path><text x="230" y="337" text-anchor="middle" font-family="ui-monospace,SFMono-Regular,Menlo,Consolas,monospace" font-size="16" fill="#9F96A2">Node</text><path d="M275 316H381L389 324V348H275Z" fill="none" stroke="#AD00D2" stroke-width="1"></path><text x="332" y="337" text-anchor="middle" font-family="ui-monospace,SFMono-Regular,Menlo,Consolas,monospace" font-size="16" fill="#D742FF">Zero deps</text><text x="940" y="96" font-family="ui-monospace,SFMono-Regular,Menlo,Consolas,monospace" font-size="13" fill="#978E9A">stamp</text><text x="940" y="130" xml:space="preserve" font-family="ui-monospace,SFMono-Regular,Menlo,Consolas,monospace" font-size="13" fill="#9F96A2">/* firma · macro: Split Studio</text><text x="940" y="152" xml:space="preserve" font-family="ui-monospace,SFMono-Regular,Menlo,Consolas,monospace" font-size="13" fill="#9F96A2">   theme: Slate · dark-tecnico</text><text x="940" y="174" xml:space="preserve" font-family="ui-monospace,SFMono-Regular,Menlo,Consolas,monospace" font-size="13" fill="#9F96A2">   critique: P5 J4 E5 F4 H5 V5 */</text><path d="M940 300H976L984 308V334H940Z" fill="#251E28" stroke="#413644" stroke-width="1"></path><text x="962" y="322" text-anchor="middle" font-family="ui-monospace,SFMono-Regular,Menlo,Consolas,monospace" font-size="13" fill="#9F96A2">P</text><path d="M994 300H1030L1038 308V334H994Z" fill="#251E28" stroke="#413644" stroke-width="1"></path><text x="1016" y="322" text-anchor="middle" font-family="ui-monospace,SFMono-Regular,Menlo,Consolas,monospace" font-size="13" fill="#9F96A2">J</text><path d="M1048 300H1084L1092 308V334H1048Z" fill="#251E28" stroke="#413644" stroke-width="1"></path><text x="1070" y="322" text-anchor="middle" font-family="ui-monospace,SFMono-Regular,Menlo,Consolas,monospace" font-size="13" fill="#9F96A2">E</text><path d="M1102 300H1138L1146 308V334H1102Z" fill="#251E28" stroke="#AD00D2" stroke-width="1"></path><text x="1124" y="322" text-anchor="middle" font-family="ui-monospace,SFMono-Regular,Menlo,Consolas,monospace" font-size="13" fill="#D742FF">F</text><path d="M1156 300H1192L1200 308V334H1156Z" fill="#251E28" stroke="#AD00D2" stroke-width="1"></path><text x="1178" y="322" text-anchor="middle" font-family="ui-monospace,SFMono-Regular,Menlo,Consolas,monospace" font-size="13" fill="#D742FF">H</text><path d="M1210 300H1246L1254 308V334H1210Z" fill="#251E28" stroke="#413644" stroke-width="1"></path><text x="1232" y="322" text-anchor="middle" font-family="ui-monospace,SFMono-Regular,Menlo,Consolas,monospace" font-size="13" fill="#9F96A2">V</text>
</svg>
